<?xml version="1.0" encoding="utf-8"?>
<!-- Generator: Adobe Illustrator 27.5.0, SVG Export Plug-In . SVG Version: 6.00 Build 0)  -->
<svg version="1.1" xmlns="http://www.w3.org/2000/svg" xmlns:xlink="http://www.w3.org/1999/xlink" x="0px" y="0px"
	 viewBox="0 0 500 500" style="enable-background:new 0 0 500 500;" xml:space="preserve">
<g id="BACKGROUND">
	<rect y="0" style="fill:#FAFAFA;" width="500" height="500"/>
</g>
<g id="OBJECTS">
	<text transform="matrix(1 0 0 1 57.3069 43.5209)" style="fill:#595959; font-family:'Roboto-Bold'; font-size:23.3951px;">Silhouette Avatar Collection</text>
	<g>
		<path style="fill:#336300;" d="M418.999,178.889h-51.737c-13.765,0-24.923-11.158-24.923-24.923V102.23
			c0-13.765,11.159-24.923,24.923-24.923h51.737c13.765,0,24.923,11.159,24.923,24.923v51.737
			C443.922,167.731,432.764,178.889,418.999,178.889z"/>
		<path style="fill:#56A500;" d="M418.999,175.401h-51.737c-13.765,0-24.923-11.158-24.923-24.923V98.741
			c0-13.765,11.159-24.923,24.923-24.923h51.737c13.765,0,24.923,11.159,24.923,24.923v51.737
			C443.922,164.242,432.764,175.401,418.999,175.401z"/>
		<path style="opacity:0.1;" d="M443.922,150.477v-25.042l-34.38-34.38c0,0-11.492,33.245-12.313,34.477
			c-0.821,1.231-9.235,30.783-9.235,30.783l-39.431,6.581l11.417,11.417c2.304,0.703,4.748,1.087,7.282,1.087h51.737
			C432.764,175.401,443.922,164.242,443.922,150.477z"/>
		<g>
			<path style="fill:#FAFAFA;" d="M367.262,172.938h51.737c7.795,0,14.67-3.995,18.699-10.042c-1.004-4.06-2.305-7.57-4.036-9.894
				c-3.363-4.516-24.547-11.22-25.477-11.975c-0.93-0.756-3.894-4.766-3.894-4.766h-0.204v-4.393
				c1.273-1.598,2.256-3.225,2.886-4.529c0.422-0.874,0.784-2.74,1.094-5.118c3.49-1.601,3.913-7.181,4.06-10.309
				c0.057-1.228-0.403-1.558-1.01-1.483c0.152-0.692,0.312-1.427,0.481-2.203c1.39-6.396,0.139-14.116-1.181-16.469
				c-1.32-2.353-8.686-3.529-8.686-3.529c-4.517-5.955-12.485-2.818-13.041-3.112c-0.556-0.294-2.78-0.294-3.613,0.245
				c-0.834,0.539-2.826,1.667-3.521,1.667c-0.695,0-2.455-0.588-2.455-0.588c0.046,0.686,1.344,1.814,1.344,1.814
				c-0.463,0-1.76,1.176-2.687,1.667c-0.927,0.49-3.938-0.294-3.938-0.294c0.093,0.931,1.668,2.304,1.668,2.304
				c-1.066,0.049-2.733-0.539-2.733-0.539c0.093,1.47,2.548,2.304,2.548,2.304c-2.363,0.735-2.131,8.528-2.316,10.146
				c-0.185,1.617-1.39,4.264-1.39,4.264c1.575,0.098,3.521-2.255,3.521-2.255c-0.101,0.785,0.157,2.641,0.527,4.682
				c-0.797-0.279-1.497-0.116-1.427,1.381c0.147,3.129,0.569,8.713,4.064,10.311c0.31,2.377,0.672,4.242,1.095,5.115
				c0.616,1.275,1.57,2.861,2.803,4.426v4.496h-0.204c0,0-2.964,4.011-3.894,4.766c-0.93,0.755-22.114,7.459-25.477,11.975
				c-1.731,2.324-3.033,5.834-4.036,9.895C352.592,168.943,359.467,172.938,367.262,172.938z"/>
		</g>
	</g>
	<g>
		<path style="fill:#BD4D42;" d="M132.738,178.889H81.001c-13.765,0-24.923-11.158-24.923-24.923V102.23
			c0-13.765,11.158-24.923,24.923-24.923h51.737c13.765,0,24.923,11.159,24.923,24.923v51.737
			C157.661,167.731,146.502,178.889,132.738,178.889z"/>
		<path style="fill:#FF6859;" d="M132.738,175.401H81.001c-13.765,0-24.923-11.158-24.923-24.923V98.741
			c0-13.765,11.158-24.923,24.923-24.923h51.737c13.765,0,24.923,11.159,24.923,24.923v51.737
			C157.661,164.242,146.502,175.401,132.738,175.401z"/>
		<g>
			<path style="fill:#FAFAFA;" d="M81.001,172.938h51.737c7.683,0,14.473-3.882,18.524-9.784c-1.003-4.092-2.307-7.632-4.047-9.967
				c-3.348-4.496-24.435-11.169-25.36-11.921c-0.926-0.752-3.876-4.744-3.876-4.744h-0.202v-4.373
				c1.267-1.59,2.245-3.21,2.872-4.508c0.42-0.87,0.781-2.727,1.089-5.094c3.474-1.594,3.895-7.148,4.041-10.262
				c0.014-0.298-0.003-0.542-0.045-0.741c0.689-1.107,1.149-2.356,1.335-3.645c0.311-1.51,0.627-3.727,0.73-6.252
				c0.358-1.676,0.665-3.362,0.907-5.058c0.283,0.13,0.566,0.259,0.85,0.388c-0.952-2.83-2.449-5.475-4.385-7.749
				c0.215-0.167,0.43-0.335,0.646-0.502c-1.204-0.26-2.408-0.52-3.612-0.779c0.23-0.375,0.46-0.751,0.69-1.126
				c-1.223,0.245-3.034,0.331-4.577,0.642c-0.742-2.043-1.924-3.98-3.29-5.595c0.155,0.791,0.309,1.581,0.464,2.372
				c-1.514-0.445-3.027-0.891-4.541-1.336c0.429,0.368,0.857,0.737,1.286,1.105c-2.626-0.248-5.286,0.008-7.831,0.695
				c-5.809,0.279-11.594-0.101-16.819-2.501c0.532,0.797,1.065,1.595,1.597,2.392c-1.141-0.008-2.28-0.292-3.29-0.822
				c0.339,1.816,0.678,3.632,1.018,5.449c-0.321-0.227-0.642-0.455-0.963-0.682c0.365,3.018,0.399,6.069,0.52,9.109
				c-1.27,5.428-0.072,10.678,0.659,11.47c0.389,0.421,0.841,1.073,1.302,1.816c-0.265,0.192-0.422,0.605-0.387,1.35
				c0.146,3.115,0.567,8.673,4.045,10.264c0.308,2.366,0.669,4.223,1.09,5.092c0.613,1.27,1.563,2.848,2.79,4.405v4.476h-0.203
				c0,0-2.951,3.992-3.877,4.744c-0.926,0.752-22.013,7.425-25.361,11.921c-1.74,2.336-3.044,5.875-4.047,9.966
				C66.528,169.055,73.317,172.938,81.001,172.938z"/>
		</g>
		<path style="opacity:0.15;" d="M157.661,121.779l-32.297-32.297c1.836,2.217,3.271,4.766,4.189,7.495
			c-0.283-0.129-0.566-0.259-0.85-0.388c-0.242,1.696-0.549,3.382-0.907,5.058c-0.103,2.525-0.419,4.741-0.73,6.252
			c-0.186,1.289-0.646,2.538-1.335,3.645c0.042,0.199,0.059,0.443,0.045,0.741c-0.146,3.113-0.567,8.668-4.041,10.262
			c-0.308,2.367-0.669,4.225-1.089,5.094c-0.627,1.297-1.605,2.918-2.872,4.508v4.373h0.202c0,0,2.951,3.992,3.876,4.744
			c0.926,0.752,22.013,7.425,25.36,11.921c1.74,2.336,3.044,5.875,4.047,9.967c-4.051,5.902-10.841,9.784-18.524,9.784H81.001
			c-5.983,0-11.417-2.361-15.445-6.19c-0.021,0.011-0.04,0.023-0.061,0.034l7.154,7.154c2.615,0.931,5.418,1.465,8.352,1.465h51.737
			c13.765,0,24.923-11.158,24.923-24.923V121.779z"/>
	</g>
	<g>
		<path style="fill:#BD8342;" d="M275.868,178.889h-51.737c-13.765,0-24.923-11.158-24.923-24.923V102.23
			c0-13.765,11.158-24.923,24.923-24.923h51.737c13.765,0,24.923,11.159,24.923,24.923v51.737
			C300.792,167.731,289.633,178.889,275.868,178.889z"/>
		<path style="fill:#FFB159;" d="M275.868,175.401h-51.737c-13.765,0-24.923-11.158-24.923-24.923V98.741
			c0-13.765,11.158-24.923,24.923-24.923h51.737c13.765,0,24.923,11.159,24.923,24.923v51.737
			C300.792,164.242,289.633,175.401,275.868,175.401z"/>
		<path style="opacity:0.1;" d="M300.792,150.477v-22.784l-36.842-36.843l-11.698,35.297l-5.541,13.134l-37.754,27.705l7.021,7.021
			c2.558,0.887,5.294,1.393,8.154,1.393h51.737C289.633,175.401,300.792,164.242,300.792,150.477z"/>
		<g>
			<path style="fill:#FAFAFA;" d="M275.868,172.938c5.854,0,11.174-2.269,15.176-5.95c-0.894-7.678-2.316-14.777-4.735-17.936
				c-1.997-2.609-10.495-5.348-16.226-7.105c-3.47-2.505-8.952-4.675-8.952-4.675s-0.034,0.091-0.097,0.256l0,0
				c0.031-0.082,0.056-0.148,0.072-0.189c-0.106-0.401-0.166-0.769-0.199-1.066c2.592,2.346,7.132,2.11,7.132,2.11l-2.309,0.77
				c6.926,1.616,7.849-6.002,7.849-6.002l0.385,2.155c1.796-8.382-2.247-14.397-5.216-17.514c0.713-0.756,1.26-1.933,1.447-3.305
				c0.178-1.306-0.005-2.527-0.438-3.436c0.243-1.537,0.372-3.037,0.372-4.463c0-11.85-8.926-21.7-20.007-21.777
				c-0.041,0-0.081,0.002-0.121,0.003c-0.04-0.002-0.081-0.003-0.121-0.003c-11.081,0.077-20.007,9.927-20.007,21.777
				c0,1.425,0.129,2.926,0.372,4.463c-0.434,0.909-0.616,2.13-0.438,3.436c0.187,1.372,0.734,2.549,1.447,3.305
				c-2.969,3.117-7.012,9.131-5.216,17.514l0.385-2.155c0,0,0.923,7.618,7.849,6.002l-2.309-0.77c0,0,4.541,0.236,7.132-2.11
				c-0.034,0.297-0.093,0.666-0.199,1.066c0.016,0.042,0.041,0.107,0.072,0.189l0,0c-0.063-0.165-0.098-0.256-0.098-0.256
				s-5.482,2.17-8.951,4.675c-5.732,1.757-14.229,4.496-16.226,7.105c-2.419,3.159-3.841,10.258-4.735,17.936
				c4.002,3.682,9.322,5.951,15.176,5.951H275.868z M260.863,132.739c1.384-1.785,2.493-3.696,3.374-5.625
				c0.602-1.345,1.123-2.736,1.57-4.134c0.014-0.046,0.028-0.096,0.042-0.143c0.042-0.082,0.084-0.166,0.126-0.249
				c0.932,2.298,1.14,4.329,1.14,4.329c0.448,8.226-3.865,8.069-6.252,7.371V132.739z M232.885,126.917c0,0,0.208-2.031,1.14-4.329
				c0.042,0.083,0.083,0.166,0.126,0.249c0.014,0.047,0.028,0.097,0.043,0.143c0.446,1.398,0.967,2.789,1.57,4.134
				c0.881,1.929,1.99,3.84,3.374,5.625v1.549C236.75,134.986,232.437,135.143,232.885,126.917z"/>
		</g>
	</g>
	<g>
		<path style="fill:#8E48BD;" d="M418.999,312.02h-51.737c-13.765,0-24.923-11.159-24.923-24.923V235.36
			c0-13.765,11.159-24.923,24.923-24.923h51.737c13.765,0,24.923,11.159,24.923,24.923v51.737
			C443.922,300.862,432.764,312.02,418.999,312.02z"/>
		<path style="fill:#C061FF;" d="M418.999,308.531h-51.737c-13.765,0-24.923-11.159-24.923-24.923v-51.737
			c0-13.765,11.159-24.923,24.923-24.923h51.737c13.765,0,24.923,11.158,24.923,24.923v51.737
			C443.922,297.373,432.764,308.531,418.999,308.531z"/>
		<path style="opacity:0.1;" d="M443.922,283.608v-25.113l-36.47-36.47l-6.119-0.711l-14.57,25.652c0,0,5.336,25.652,5.951,27.499
			c0.616,1.847-5.336,17.238-5.336,17.238l-39.023,2.798l13.398,13.398c1.774,0.401,3.613,0.631,5.509,0.631h51.737
			C432.764,308.531,443.922,297.373,443.922,283.608z"/>
		<g>
			<path style="fill:#FAFAFA;" d="M367.262,305.453h51.737c8.076,0,15.126-4.417,18.907-10.951c-0.711-1.802-1.517-3.38-2.444-4.625
				c-3.513-4.717-25.637-11.718-26.608-12.507c-0.971-0.789-4.067-4.978-4.067-4.978h-0.213v-4.588
				c1.329-1.668,2.356-3.368,3.014-4.73c0.44-0.913,0.819-2.861,1.142-5.345c3.645-1.672,4.087-7.5,4.24-10.766
				c0.065-1.39-0.505-1.678-1.217-1.521c0.15-0.544,0.268-1.048,0.349-1.488c1.091-3.852,1.569-7.877,1.377-11.876
				c0.512,0.017,1.025,0.035,1.537,0.052c-2.192-4.091-5.48-7.589-9.427-10.031c0.621-0.025,1.243-0.049,1.864-0.074
				c-3.835-3.073-8.62-4.944-13.522-5.289c0.32-0.253,0.641-0.507,0.961-0.76c-4.56,0.773-8.884,2.877-12.316,5.977
				c-1.082-0.503-2.223-0.876-3.396-1.097c0.569,0.494,1.137,0.987,1.706,1.481c-2.681,0.275-5.279,1.325-7.398,2.99
				c0.543,0.045,1.085,0.09,1.628,0.134c-2.176,2.483-3.954,5.314-5.246,8.352c0.565-0.073,1.129-0.146,1.694-0.219
				c0.737,3.7,1.709,7.352,2.898,10.932c-0.011,0.137-0.027,0.272-0.048,0.402c-0.025,0.151-0.026,0.314-0.009,0.483
				c-0.621-0.065-1.089,0.287-1.029,1.551c0.153,3.268,0.595,9.099,4.244,10.769c0.323,2.483,0.702,4.43,1.144,5.343
				c0.643,1.332,1.64,2.988,2.927,4.622v4.696h-0.213c0,0-3.096,4.189-4.067,4.978c-0.971,0.789-23.096,7.79-26.608,12.507
				c-0.927,1.244-1.733,2.823-2.444,4.625C352.136,301.036,359.186,305.453,367.262,305.453z"/>
		</g>
	</g>
	<g>
		<path style="fill:#0063AF;" d="M275.868,312.02h-51.737c-13.765,0-24.923-11.159-24.923-24.923V235.36
			c0-13.765,11.158-24.923,24.923-24.923h51.737c13.765,0,24.923,11.159,24.923,24.923v51.737
			C300.792,300.862,289.633,312.02,275.868,312.02z"/>
		<path style="fill:#0089F1;" d="M275.868,308.531h-51.737c-13.765,0-24.923-11.159-24.923-24.923v-51.737
			c0-13.765,11.158-24.923,24.923-24.923h51.737c13.765,0,24.923,11.158,24.923,24.923v51.737
			C300.792,297.373,289.633,308.531,275.868,308.531z"/>
		<path style="opacity:0.1;" d="M265.462,224.429l-7.67,5.914l-7.798,19.29c0,0-4.925,24.011-5.13,25.447
			c-0.205,1.437-1.437,16.007-1.437,16.007l-34.758,7.934l8.506,8.506c2.21,0.642,4.54,1.004,6.957,1.004h51.737
			c13.765,0,24.923-11.159,24.923-24.923v-23.85L265.462,224.429z"/>
		<g>
			<path style="fill:#FAFAFA;" d="M224.132,305.453h51.736c6.035,0,11.505-2.461,15.463-6.431
				c-0.891-4.577-2.078-8.398-3.697-10.512c-2.077-2.713-10.914-5.561-16.875-7.389c-3.608-2.605-9.309-4.862-9.309-4.862
				s-0.035,0.095-0.101,0.266l0,0c0.033-0.085,0.059-0.153,0.075-0.197c-0.226-0.855-0.251-1.575-0.252-1.783v-3
				c0.634-0.818,1.21-1.662,1.737-2.522c1.494-0.06,2.971-0.278,4.359-0.907c2.229-1.011,4.201-5.151,4.265-7.952
				c2.396-0.145,9.101-2.224,6.369-10.174c-0.083-0.242-0.184-0.488-0.171-0.748c0.02-0.399,0.321-0.678,0.501-1.017
				c4.298-8.073-2.195-11.476-2.715-11.296c0.009,0.726-0.06,1.453-0.205,2.158c-0.028,0.136-0.054,0.289-0.101,0.422
				c-0.987-0.022-2.013-0.579-2.667-1.362c-0.96-1.148-1.356-2.648-1.873-4.052c-1.271-3.448-3.43-6.564-6.212-8.965
				c0.335-0.234,0.671-0.467,1.006-0.701c-1.992-0.222-3.983-0.443-5.975-0.665c-0.825-1.501-1.908-2.861-3.202-3.984
				c0.102,0.756,0.205,1.512,0.307,2.268c-4.377-4.133-11.335-4.885-16.877-2.535c-5.542,2.35-9.661,7.415-11.719,13.072
				c-0.793,2.179-1.302,4.44-1.585,6.736c-1.364,0.8-3.303-0.643-3.195-2.455c-1.042-0.066-4.773,7.147-1.756,11.261
				c0.195,0.265,0.415,0.55,0.429,0.899c0.011,0.28-0.12,0.537-0.234,0.784c-0.921,1.988-0.937,4.516-0.042,6.52
				s2.675,3.428,4.593,3.674c0.441,0.056,0.917,0.067,1.271,0.381c0.415,0.368,0.525,1.029,0.675,1.613
				c0.95,3.71,4.412,5.776,7.688,6.26c0.527,0.078,1.056,0.124,1.586,0.151c0.443,0.762,0.922,1.514,1.445,2.248v3.823h-0.042
				c0,0,0.019,0.828-0.251,1.848c-0.018-0.044-0.027-0.07-0.027-0.07s-5.701,2.257-9.309,4.862
				c-5.961,1.827-14.798,4.675-16.875,7.389c-1.619,2.114-2.806,5.936-3.697,10.513
				C212.627,302.992,218.097,305.453,224.132,305.453z"/>
		</g>
	</g>
	<g>
		<path style="fill:#009777;" d="M132.738,312.02H81.001c-13.765,0-24.923-11.159-24.923-24.923V235.36
			c0-13.765,11.158-24.923,24.923-24.923h51.737c13.765,0,24.923,11.159,24.923,24.923v51.737
			C157.661,300.862,146.502,312.02,132.738,312.02z"/>
		<path style="fill:#00D9AB;" d="M132.738,308.531H81.001c-13.765,0-24.923-11.159-24.923-24.923v-51.737
			c0-13.765,11.158-24.923,24.923-24.923h51.737c13.765,0,24.923,11.158,24.923,24.923v51.737
			C157.661,297.373,146.502,308.531,132.738,308.531z"/>
		<path style="opacity:0.1;" d="M125.949,220.493c0,0-20.317,27.499-20.727,28.32c-0.41,0.821-0.41,29.551-0.41,31.193
			c0,1.642-11.082,11.492-11.903,11.697s-30.489,3.333-30.489,3.333l12.792,12.792c1.861,0.444,3.793,0.704,5.79,0.704h51.737
			c13.765,0,24.923-11.159,24.923-24.923v-31.403L125.949,220.493z"/>
		<g>
			<path style="fill:#FAFAFA;" d="M81.001,305.453h51.737c7.853,0,14.73-4.179,18.581-10.416c-0.724-1.87-1.551-3.497-2.504-4.776
				c-3.481-4.674-25.404-11.612-26.367-12.393s-4.03-4.933-4.03-4.933h-0.211v-4.547c1.317-1.653,2.334-3.338,2.986-4.687
				c0.436-0.905,0.812-2.835,1.132-5.297c3.612-1.657,4.049-7.432,4.201-10.669c0.051-1.093-0.295-1.498-0.793-1.541
				c1.175-2.543,1.818-5.611,2.154-8.44c0.941-4.014,1.068-8.262-0.257-12.147c0.4,0.227,0.8,0.453,1.2,0.679
				c-0.564-4.389-3.895-8.032-7.793-10.126c-3.898-2.095-8.34-2.895-12.7-3.649c0.373-0.48,0.745-0.96,1.118-1.44
				c-4.636,0.462-9.131,2.222-12.867,5.003c-0.997-0.461-2.112-0.773-3.124-1.029c0.315,0.422,0.629,0.844,0.944,1.266
				c-7.531,0.964-8.664,5.895-8.215,5.262c0.496-0.702,2.532-0.766,2.532-0.766c-7.249,7.968-3.185,19.396-0.161,25.439
				c-0.737-0.189-1.34,0.071-1.273,1.491c0.152,3.238,0.589,9.017,4.205,10.671c0.32,2.46,0.696,4.39,1.133,5.294
				c0.638,1.32,1.625,2.961,2.901,4.58v4.653H95.32c0,0-3.068,4.151-4.03,4.933c-0.962,0.782-22.886,7.719-26.367,12.393
				c-0.952,1.279-1.78,2.905-2.503,4.775C66.27,301.274,73.148,305.453,81.001,305.453z"/>
		</g>
	</g>
	<g>
		<path style="fill:#BD6D08;" d="M418.999,445.151h-51.737c-13.765,0-24.923-11.159-24.923-24.923v-51.737
			c0-13.765,11.159-24.923,24.923-24.923h51.737c13.765,0,24.923,11.159,24.923,24.923v51.737
			C443.922,433.993,432.764,445.151,418.999,445.151z"/>
		<path style="fill:#FF930A;" d="M418.999,441.662h-51.737c-13.765,0-24.923-11.158-24.923-24.923v-51.737
			c0-13.765,11.159-24.923,24.923-24.923h51.737c13.765,0,24.923,11.159,24.923,24.923v51.737
			C443.922,430.504,432.764,441.662,418.999,441.662z"/>
		<path style="opacity:0.1;" d="M410.774,356.497l-16.212,20.727l-5.13,32.424l-7.798,16.828l-32.355,2.634l11.729,11.728
			c2.003,0.519,4.091,0.824,6.256,0.824h51.737c13.765,0,24.923-11.159,24.923-24.923v-27.094L410.774,356.497z"/>
		<g>
			<path style="fill:#FAFAFA;" d="M367.262,438.584h51.737c7.454,0,14.041-3.759,17.985-9.474c-0.967-3.717-2.203-6.917-3.815-9.08
				c-3.322-4.461-24.248-11.083-25.167-11.83c-0.919-0.746-3.847-4.708-3.847-4.708h-0.201v-4.34
				c1.257-1.578,2.228-3.186,2.851-4.473c0.416-0.863,0.775-2.707,1.08-5.056c3.447-1.582,3.865-7.094,4.01-10.184
				c0.075-1.6-0.741-1.657-1.605-1.288c0.773-1.94,1.688-3.836,2.457-5.78c1.265-3.197,2.138-6.74,1.235-10.057
				c0.314,0.264,0.627,0.528,0.941,0.793c-1.99-5.079-5.775-9.59-10.797-11.719c-5.022-2.13-11.28-1.565-15.393,2.018
				c0.001-0.548,0.002-1.096,0.003-1.645c-1.057,1.026-1.981,2.184-2.766,3.43c-1.111-0.582-2.297-1.021-3.523-1.286
				c0.661,0.521,1.323,1.042,1.984,1.562c-1.703-0.327-3.462-0.363-5.178-0.107c0.461,0.189,0.922,0.379,1.383,0.568
				c-4.563,4.152-7.681,9.864-8.706,15.947c0.424-0.402,0.849-0.804,1.273-1.205c0.304,2.575,1.139,5.081,2.412,7.34
				c-0.683-0.158-1.234,0.102-1.172,1.429c0.145,3.091,0.562,8.607,4.014,10.186c0.306,2.348,0.664,4.19,1.082,5.053
				c0.609,1.26,1.551,2.826,2.769,4.372v4.442h-0.201c0,0-2.928,3.962-3.847,4.708c-0.918,0.746-21.845,7.368-25.167,11.83
				c-1.611,2.163-2.847,5.364-3.815,9.08C353.222,434.826,359.809,438.584,367.262,438.584z"/>
		</g>
	</g>
	<g>
		<path style="fill:#1B0D18;" d="M132.738,445.151H81.001c-13.765,0-24.923-11.159-24.923-24.923v-51.737
			c0-13.765,11.158-24.923,24.923-24.923h51.737c13.765,0,24.923,11.159,24.923,24.923v51.737
			C157.661,433.993,146.502,445.151,132.738,445.151z"/>
		<path style="fill:#743769;" d="M132.738,441.662H81.001c-13.765,0-24.923-11.158-24.923-24.923v-51.737
			c0-13.765,11.158-24.923,24.923-24.923h51.737c13.765,0,24.923,11.159,24.923,24.923v51.737
			C157.661,430.504,146.502,441.662,132.738,441.662z"/>
		<path style="opacity:0.1;" d="M157.661,416.739v-28.12l-32.738-32.738l-14.571,5.541l-6.567,20.727l5.541,37.35l-16.212,5.13
			l-30.494,3.867l12.418,12.418c1.914,0.471,3.904,0.748,5.963,0.748h51.737C146.502,441.662,157.661,430.504,157.661,416.739z"/>
		<g>
			<path style="fill:#FAFAFA;" d="M81.001,438.584h51.737c7.715,0,14.494-4.031,18.381-10.087c-0.943-3.456-2.133-6.423-3.656-8.467
				c-3.322-4.461-24.249-11.083-25.167-11.83c-0.919-0.746-3.847-4.708-3.847-4.708h-0.201v-4.442
				c1.218-1.545,2.16-3.112,2.769-4.372c0.417-0.863,0.776-2.705,1.082-5.053c3.452-1.579,3.869-7.095,4.014-10.186
				c0.066-1.399-0.55-1.616-1.283-1.402c0.251-0.353,0.481-0.721,0.667-1.113c0.927-1.956,0.966-4.35,0.093-6.33
				c0.979-0.959,1.614-2.262,1.769-3.624c0.154-1.362-0.212-2.567-0.951-3.721c0.755-1.919,0.601-4.174-0.408-5.973
				c-1.009-1.799-2.638-2.947-4.669-3.304c-0.506-1.247-1.524-2.278-2.765-2.8c-1.241-0.522-2.78-0.54-4.026-0.031
				c-0.529-1.176-1.495-2.149-2.668-2.686c-1.087-0.497-2.34-0.609-3.501-0.329c-0.493-0.17-1.018-0.265-1.566-0.265
				c-0.494,0-0.971,0.077-1.421,0.216c-1.105-0.222-2.28-0.091-3.305,0.378c-1.173,0.536-2.14,1.509-2.668,2.686
				c-1.246-0.509-2.786-0.491-4.026,0.031c-1.241,0.522-2.258,1.553-2.764,2.8c-2.031,0.357-3.661,1.505-4.669,3.304
				c-1.009,1.799-1.163,4.054-0.408,5.973c-0.739,1.154-1.105,2.359-0.951,3.721c0.154,1.362,0.79,2.664,1.768,3.624
				c-0.873,1.981-0.835,4.374,0.093,6.33c0.202,0.427,0.453,0.828,0.733,1.208c-0.847-0.347-1.631-0.263-1.557,1.307
				c0.145,3.091,0.562,8.607,4.014,10.186c0.306,2.348,0.664,4.19,1.082,5.053c0.609,1.26,1.551,2.826,2.769,4.372v4.442H95.29
				c0,0-2.928,3.962-3.847,4.708c-0.918,0.746-21.845,7.368-25.167,11.83c-1.522,2.044-2.713,5.01-3.655,8.466
				C66.507,434.552,73.285,438.584,81.001,438.584z"/>
		</g>
	</g>
	<g>
		<path style="fill:#2097BD;" d="M275.868,445.151h-51.737c-13.765,0-24.923-11.159-24.923-24.923v-51.737
			c0-13.765,11.158-24.923,24.923-24.923h51.737c13.765,0,24.923,11.159,24.923,24.923v51.737
			C300.792,433.993,289.633,445.151,275.868,445.151z"/>
		<path style="fill:#2BCCFF;" d="M275.868,441.662h-51.737c-13.765,0-24.923-11.158-24.923-24.923v-51.737
			c0-13.765,11.158-24.923,24.923-24.923h51.737c13.765,0,24.923,11.159,24.923,24.923v51.737
			C300.792,430.504,289.633,441.662,275.868,441.662z"/>
		<path style="opacity:0.1;" d="M261.72,354.419l-18.703,11.723l2.463,24.626c0,0,4.515,26.063,4.31,26.884
			s-16.007,6.977-16.007,6.977l-21.388,10.503l5.785,5.785c1.911,0.469,3.898,0.746,5.954,0.746h51.737
			c13.765,0,24.923-11.159,24.923-24.923V393.49L261.72,354.419z"/>
		<path style="fill:#FAFAFA;" d="M283.486,420.783c-1.867-2.439-9.811-4.999-15.17-6.642c-3.244-2.342-8.368-4.37-8.368-4.37
			s-0.009,0.023-0.025,0.063c-0.243-0.917-0.226-1.661-0.226-1.661h-0.038v-1.032c3.299-1.583,12.866-7.074,12.732-17.146
			c0.453-0.022,0.906-0.061,1.359-0.137c-0.582-1.475-1.165-2.951-1.747-4.426c-0.054-0.444-0.111-0.895-0.173-1.353
			c1.326,0.633,2.653,1.266,3.979,1.898c-2.371-2.462-3.911-5.711-4.318-9.105c1.15,0.233,2.301,0.466,3.451,0.699
			c-3.643-2.641-5.558-7.009-7.114-11.231c-1.556-4.222-3.007-8.663-6.11-11.921c-1.795-1.885-9.063-5.723-11.72-2.921
			c-2.657-2.802-9.924,1.036-11.72,2.921c-3.103,3.258-4.554,7.699-6.11,11.921c-1.556,4.222-3.471,8.59-7.114,11.231
			c1.15-0.233,2.301-0.466,3.451-0.699c-0.406,3.394-1.947,6.643-4.318,9.105c1.326-0.633,2.653-1.265,3.979-1.898
			c-0.061,0.458-0.119,0.909-0.173,1.353c-0.582,1.475-1.165,2.951-1.747,4.426c0.452,0.076,0.906,0.115,1.359,0.137
			c-0.133,10.072,9.434,15.563,12.733,17.146v1.032h-0.038c0,0,0.017,0.744-0.226,1.661c-0.016-0.04-0.025-0.063-0.025-0.063
			s-5.125,2.029-8.368,4.37c-5.358,1.643-13.302,4.203-15.17,6.642c-2.004,2.617-3.275,8.133-4.121,14.349
			c3.395,2.174,7.417,3.452,11.739,3.452h51.736c4.322,0,8.344-1.278,11.739-3.452C286.761,428.915,285.49,423.4,283.486,420.783z"
			/>
	</g>
</g>
</svg>
