<svg id="visual" viewBox="0 0 1440 500" width="1440" height="500" xmlns="http://www.w3.org/2000/svg" 
xmlns:xlink="http://www.w3.org/1999/xlink" version="1.1">


<path d="M0 46L40 41.8C80 37.7 160 29.3 240 24.3C320 19.3 400 17.7 480 17.7C560 17.7 640 19.3 720 23.5C800 27.7 880 34.3 960 32.7C1040 31 1120 21 1200 14.2C1280 7.3 1360 3.7 1400 1.8L1440 0L1440 0L1400 0C1360 0 1280 0 1200 0C1120 0 1040 0 960 0C880 0 800 0 720 0C640 0 560 0 480 0C400 0 320 0 240 0C160 0 80 0 40 0L0 0Z" fill="#ffffff"></path>



<path d="M0 66L40 79.3C80 92.7 160 119.3 240 148.5C320 177.7 400 209.3 480 239.3C560 269.3 640 297.7 720 295.2C800 292.7 880 259.3 960 233.5C1040 207.7 1120 189.3 1200 166C1280 142.7 1360 114.3 1400 100.2L1440 86L1440 74L1400 82.3C1360 90.7 1280 107.3 1200 129C1120 150.7 1040 177.3 960 203.2C880 229 800 254 720 258.2C640 262.3 560 245.7 480 220.7C400 195.7 320 162.3 240 134C160 105.7 80 82.3 40 70.7L0 59Z" fill="#8ac4af"></path>

<path d="M0 116L40 124.3C80 132.7 160 149.3 240 172.7C320 196 400 226 480 255.2C560 284.3 640 312.7 720 309.3C800 306 880 271 960 252.7C1040 234.3 1120 232.7 1200 214.3C1280 196 1360 161 1400 143.5L1440 126L1440 84L1400 98.2C1360 112.3 1280 140.7 1200 164C1120 187.3 1040 205.7 960 231.5C880 257.3 800 290.7 720 293.2C640 295.7 560 267.3 480 237.3C400 207.3 320 175.7 240 146.5C160 117.3 80 90.7 40 77.3L0 64Z" fill="#49a689"></path>

<path d="M0 261L40 251C80 241 160 221 240 221.8C320 222.7 400 244.3 480 271C560 297.7 640 329.3 720 332.7C800 336 880 311 960 300.2C1040 289.3 1120 292.7 1200 286.8C1280 281 1360 266 1400 258.5L1440 251L1440 124L1400 141.5C1360 159 1280 194 1200 212.3C1120 230.7 1040 232.3 960 250.7C880 269 800 304 720 307.3C640 310.7 560 282.3 480 253.2C400 224 320 194 240 170.7C160 147.3 80 130.7 40 122.3L0 114Z" fill="#009473"></path>

<path d="M0 306L40 294.3C80 282.7 160 259.3 240 256C320 252.7 400 269.3 480 296.8C560 324.3 640 362.7 720 368.5C800 374.3 880 347.7 960 332.7C1040 317.7 1120 314.3 1200 312.7C1280 311 1360 311 1400 311L1440 311L1440 249L1400 256.5C1360 264 1280 279 1200 284.8C1120 290.7 1040 287.3 960 298.2C880 309 800 334 720 330.7C640 327.3 560 295.7 480 269C400 242.3 320 220.7 240 219.8C160 219 80 239 40 249L0 259Z" fill="#009473"></path>

<path d="M0 321L40 312.7C80 304.3 160 287.7 240 283.5C320 279.3 400 287.7 480 310.2C560 332.7 640 369.3 720 376C800 382.7 880 359.3 960 348.5C1040 337.7 1120 339.3 1200 336C1280 332.7 1360 324.3 1400 320.2L1440 316L1440 309L1400 309C1360 309 1280 309 1200 310.7C1120 312.3 1040 315.7 960 330.7C880 345.7 800 372.3 720 366.5C640 360.7 560 322.3 480 294.8C400 267.3 320 250.7 240 254C160 257.3 80 280.7 40 292.3L0 304Z" fill="#49a689"></path>

<path d="M0 386L40 369.3C80 352.7 160 319.3 240 312.7C320 306 400 326 480 350.2C560 374.3 640 402.7 720 404.3C800 406 880 381 960 371C1040 361 1120 366 1200 373.5C1280 381 1360 391 1400 396L1440 401L1440 314L1400 318.2C1360 322.3 1280 330.7 1200 334C1120 337.3 1040 335.7 960 346.5C880 357.3 800 380.7 720 374C640 367.3 560 330.7 480 308.2C400 285.7 320 277.3 240 281.5C160 285.7 80 302.3 40 310.7L0 319Z" fill="#8ac4af"></path>

<path d="M0 491L40 475.2C80 459.3 160 427.7 240 421.8C320 416 400 436 480 452.7C560 469.3 640 482.7 720 472.7C800 462.7 880 429.3 960 426.8C1040 424.3 1120 452.7 1200 459.3C1280 466 1360 451 1400 443.5L1440 436L1440 399L1400 394C1360 389 1280 379 1200 371.5C1120 364 1040 359 960 369C880 379 800 404 720 402.3C640 400.7 560 372.3 480 348.2C400 324 320 304 240 310.7C160 317.3 80 350.7 40 367.3L0 384Z" fill="#c5e2d6"></path>

<path d="M0 501L40 501C80 501 160 501 240 501C320 501 400 501 480 501C560 501 640 501 720 501C800 501 880 501 960 501C1040 501 1120 501 1200 501C1280 501 1360 501 1400 501L1440 501L1440 434L1400 441.5C1360 449 1280 464 1200 457.3C1120 450.7 1040 422.3 960 424.8C880 427.3 800 460.7 720 470.7C640 480.7 560 467.3 480 450.7C400 434 320 414 240 419.8C160 425.7 80 457.3 40 473.2L0 489Z" fill="#ffffff"></path>

</svg>