<svg id="visual" viewBox="0 0 1200 500" width="1200" height="500" xmlns="http://www.w3.org/2000/svg" xmlns:xlink="http://www.w3.org/1999/xlink" version="1.1"><path d="M0 56L40 55.2C80 54.3 160 52.7 240 51.8C320 51 400 51 480 44.3C560 37.7 640 24.3 720 22.7C800 21 880 31 960 36C1040 41 1120 41 1160 41L1200 41L1200 0L1160 0C1120 0 1040 0 960 0C880 0 800 0 720 0C640 0 560 0 480 0C400 0 320 0 240 0C160 0 80 0 40 0L0 0Z" fill="#ffffff"></path><path d="M0 191L40 171C80 151 160 111 240 100.2C320 89.3 400 107.7 480 125.2C560 142.7 640 159.3 720 179.3C800 199.3 880 222.7 960 223.5C1040 224.3 1120 202.7 1160 191.8L1200 181L1200 39L1160 39C1120 39 1040 39 960 34C880 29 800 19 720 20.7C640 22.3 560 35.7 480 42.3C400 49 320 49 240 49.8C160 50.7 80 52.3 40 53.2L0 54Z" fill="#fff9ef"></path><path d="M0 241L40 250.2C80 259.3 160 277.7 240 266.8C320 256 400 216 480 197.7C560 179.3 640 182.7 720 196.8C800 211 880 236 960 237.7C1040 239.3 1120 217.7 1160 206.8L1200 196L1200 179L1160 189.8C1120 200.7 1040 222.3 960 221.5C880 220.7 800 197.3 720 177.3C640 157.3 560 140.7 480 123.2C400 105.7 320 87.3 240 98.2C160 109 80 149 40 169L0 189Z" fill="#fff3de"></path><path d="M0 251L40 263.5C80 276 160 301 240 292.7C320 284.3 400 242.7 480 223.5C560 204.3 640 207.7 720 217.7C800 227.7 880 244.3 960 247.7C1040 251 1120 241 1160 236L1200 231L1200 194L1160 204.8C1120 215.7 1040 237.3 960 235.7C880 234 800 209 720 194.8C640 180.7 560 177.3 480 195.7C400 214 320 254 240 264.8C160 275.7 80 257.3 40 248.2L0 239Z" fill="#feeece"></path><path d="M0 266L40 281C80 296 160 326 240 320.2C320 314.3 400 272.7 480 254.3C560 236 640 241 720 251.8C800 262.7 880 279.3 960 277.7C1040 276 1120 256 1160 246L1200 236L1200 229L1160 234C1120 239 1040 249 960 245.7C880 242.3 800 225.7 720 215.7C640 205.7 560 202.3 480 221.5C400 240.7 320 282.3 240 290.7C160 299 80 274 40 261.5L0 249Z" fill="#fde8be"></path><path d="M0 301L40 319.3C80 337.7 160 374.3 240 371C320 367.7 400 324.3 480 297.7C560 271 640 261 720 271.8C800 282.7 880 314.3 960 314.3C1040 314.3 1120 282.7 1160 266.8L1200 251L1200 234L1160 244C1120 254 1040 274 960 275.7C880 277.3 800 260.7 720 249.8C640 239 560 234 480 252.3C400 270.7 320 312.3 240 318.2C160 324 80 294 40 279L0 264Z" fill="#fce6b7"></path><path d="M0 326L40 340.2C80 354.3 160 382.7 240 377.7C320 372.7 400 334.3 480 313.5C560 292.7 640 289.3 720 298.5C800 307.7 880 329.3 960 329.3C1040 329.3 1120 307.7 1160 296.8L1200 286L1200 249L1160 264.8C1120 280.7 1040 312.3 960 312.3C880 312.3 800 280.7 720 269.8C640 259 560 269 480 295.7C400 322.3 320 365.7 240 369C160 372.3 80 335.7 40 317.3L0 299Z" fill="#fce6b7"></path><path d="M0 331L40 347.7C80 364.3 160 397.7 240 393.5C320 389.3 400 347.7 480 327.7C560 307.7 640 309.3 720 322.7C800 336 880 361 960 361.8C1040 362.7 1120 339.3 1160 327.7L1200 316L1200 284L1160 294.8C1120 305.7 1040 327.3 960 327.3C880 327.3 800 305.7 720 296.5C640 287.3 560 290.7 480 311.5C400 332.3 320 370.7 240 375.7C160 380.7 80 352.3 40 338.2L0 324Z" fill="#fde8be"></path><path d="M0 336L40 359.3C80 382.7 160 429.3 240 434.3C320 439.3 400 402.7 480 384.3C560 366 640 366 720 382.7C800 399.3 880 432.7 960 437.7C1040 442.7 1120 419.3 1160 407.7L1200 396L1200 314L1160 325.7C1120 337.3 1040 360.7 960 359.8C880 359 800 334 720 320.7C640 307.3 560 305.7 480 325.7C400 345.7 320 387.3 240 391.5C160 395.7 80 362.3 40 345.7L0 329Z" fill="#feeece"></path><path d="M0 401L40 416C80 431 160 461 240 459.3C320 457.7 400 424.3 480 416.8C560 409.3 640 427.7 720 441C800 454.3 880 462.7 960 464.3C1040 466 1120 461 1160 458.5L1200 456L1200 394L1160 405.7C1120 417.3 1040 440.7 960 435.7C880 430.7 800 397.3 720 380.7C640 364 560 364 480 382.3C400 400.7 320 437.3 240 432.3C160 427.3 80 380.7 40 357.3L0 334Z" fill="#fff3de"></path><path d="M0 481L40 482.7C80 484.3 160 487.7 240 491C320 494.3 400 497.7 480 496C560 494.3 640 487.7 720 484.3C800 481 880 481 960 482.7C1040 484.3 1120 487.7 1160 489.3L1200 491L1200 454L1160 456.5C1120 459 1040 464 960 462.3C880 460.7 800 452.3 720 439C640 425.7 560 407.3 480 414.8C400 422.3 320 455.7 240 457.3C160 459 80 429 40 414L0 399Z" fill="#fff9ef"></path><path d="M0 501L40 501C80 501 160 501 240 501C320 501 400 501 480 501C560 501 640 501 720 501C800 501 880 501 960 501C1040 501 1120 501 1160 501L1200 501L1200 489L1160 487.3C1120 485.7 1040 482.3 960 480.7C880 479 800 479 720 482.3C640 485.7 560 492.3 480 494C400 495.7 320 492.3 240 489C160 485.7 80 482.3 40 480.7L0 479Z" fill="#ffffff"></path></svg>