<?xml version="1.0" encoding="utf-8"?>
<!-- Generator: Adobe Illustrator 27.5.0, SVG Export Plug-In . SVG Version: 6.00 Build 0)  -->
<svg version="1.1" id="Layer_1" xmlns="http://www.w3.org/2000/svg" xmlns:xlink="http://www.w3.org/1999/xlink" x="0px" y="0px"
	 viewBox="0 0 4000 4000" xml:space="preserve">
<g>

	<g>
		<g style="opacity:0.1;">
			<ellipse style="fill:#030071;" cx="2066.379" cy="3364.786" rx="1050.148" ry="124.428"/>
		</g>
		<g>
			<g>
				<path style="fill:#F7A128;" d="M1523.354,2899.067c0,0-168.293,26.927-198.586-135.756s70.683-218.781,94.244-201.952
					c23.561,16.829,4.055,28.049-5.265,97.61c-9.32,69.561,78.192,116.683,149.997,80.781
					C1635.549,2703.848,1583.939,2892.336,1523.354,2899.067z"/>
			</g>
			<g>
				<g style="opacity:0.2;">
					<path style="fill:#58060A;" d="M1536.593,2844.092c0,0-168.293,26.927-198.586-135.757
						c-5.727-30.754-6.749-57.686-4.503-81.049c-13.46,32.531-19.67,77.299-8.736,136.025
						c30.293,162.683,198.586,135.756,198.586,135.756c37.853-4.206,72.2-79.359,75.136-126.409
						C1584.532,2808.335,1561.314,2841.345,1536.593,2844.092z"/>
				</g>
			</g>
			<g>
				<path style="fill:#58060A;" d="M1498.289,2916.307c-52.559,0-164.101-16.216-189.033-150.107
					c-21.045-113.023,18.252-183.106,62.046-211.011c21.584-13.755,43.386-16.309,56.882-6.67
					c23.809,17.002,18.858,35.19,12.588,58.218c-3.411,12.534-8.086,29.702-11.384,54.326c-3.015,22.495,6.951,43.745,27.341,58.31
					c28.135,20.093,67.373,22.549,99.961,6.265c21.958-10.981,35.82-5.464,43.582,1.089c23.625,19.946,11.975,68.779,5.869,88.848
					c-13.071,42.969-42.065,94.653-80.815,99.15C1522.954,2915.052,1512.896,2916.307,1498.289,2916.307z M1408.499,2574.251
					c-4.592,0-15.583,2.759-28.74,13.828c-14.517,12.217-60.259,60.742-39.478,172.339
					c27.056,145.322,174.348,124.038,180.61,123.062c0.229-0.034,0.491-0.073,0.723-0.098c17.385-1.928,40.256-33.472,53.196-73.374
					c12.009-37.027,7.915-56.509,5.125-59.15c-0.01,0.112-2.734-0.195-9.131,3.003c-42.91,21.455-94.885,18.003-132.417-8.809
					c-30.215-21.577-44.897-53.721-40.278-88.179c3.577-26.704,8.569-45.039,12.214-58.427c5.349-19.649,5.444-20.005-0.166-24.019
					C1409.768,2574.315,1409.212,2574.251,1408.499,2574.251z"/>
			</g>
		</g>
		<g>
			<g>
				<path style="fill:#F7A128;" d="M2579.094,2663.808c0.519-93.633-22.758-202.772-74.163-327.04
					c-57.761-147.014-91.351-228.713-91.351-228.713s-565.104-142.833-762.807-86.072c0,0-62.439,214.721-91.016,458.279
					c-12.785,108.961-18.799,223.687-9.403,327.552c0,0,127.683,267.026,528.97,267.026
					C2377.361,3074.84,2577.597,2934.083,2579.094,2663.808L2579.094,2663.808L2579.094,2663.808z"/>
			</g>
			<g>
				<path style="fill:#FEFEFE;" d="M1795.587,2710.304c0,0-56.241-235.523,45.601-381.037
					c101.842-145.514,395.208-180.017,536.57-21.002c141.363,159.016,171.763,517.551-45.601,618.061
					C2114.793,3026.835,1877.668,3010.334,1795.587,2710.304z"/>
			</g>
			<g style="opacity:0.2;">
				<path style="fill:#58060A;" d="M1550.353,2807.814c0,0,127.683,267.026,528.97,267.026
					c298.038,0,498.274-140.758,499.771-411.032v0c0,0-128.884,249.017-484.305,249.017c-355.423,0-530.756-432.042-530.756-432.042
					c-1.463-0.307-2.88-0.45-4.277-0.52C1546.971,2589.222,1540.957,2703.949,1550.353,2807.814z"/>
			</g>
			<g>
				<path style="fill:#58060A;" d="M2079.324,3090.623c-211.926,0-348.049-74.531-424.924-137.051
					c-83.867-68.213-116.917-136.094-118.281-138.95c-0.811-1.694-1.311-3.516-1.479-5.385
					c-30.317-335.127,99.668-787.134,100.984-791.66c1.514-5.205,5.588-9.268,10.798-10.762
					c199.487-57.273,747.783,80.068,771.025,85.942c4.846,1.226,8.826,4.673,10.728,9.297c0.337,0.82,34.299,83.496,91.445,228.94
					c97.129,234.805,100.325,431.152,9.135,567.559C2445.952,3022.41,2286.343,3090.623,2079.324,3090.623z M1565.798,2803.353
					c6.477,12.198,39.37,69.883,109.832,126.802c72.795,58.808,201.924,128.906,403.694,128.906
					c196.143,0,346.436-63.232,423.193-178.047c85.059-127.236,80.852-313.345-12.168-538.218
					c-47.441-120.742-78.848-198.086-88.34-221.348c-67.161-16.445-552.73-132.097-738.484-86.533
					C1645.979,2098.24,1539.277,2499.74,1565.798,2803.353z"/>
			</g>
		</g>
		<g>
			<g>
				<g>
					<path style="fill:#F7A128;" d="M1853.956,2965.637c-89.239-90.612-272.256-175.532-301.777-188.897
						c-2.645-1.198-4.182-1.878-4.182-1.878s-7.002,25.211-16.04,65.747c-7.086,31.779-15.419,72.996-22.618,118.851
						c-0.003,0.017-0.017,0.092-0.017,0.092c0.001-0.002,0.001-0.004,0.002-0.006c0-0.001,0.001-0.002,0.001-0.003
						c-11.594,73.891-20.23,159.842-15.89,237.965c0,0-89.911,28.139-95.304,88.272c-0.01,0.109-0.027,0.216-0.037,0.325
						c-0.771,9.128,0.355,18.97,4.089,29.581c2.519,7.163,6.478,13.587,11.564,19.391c49.871,56.908,214.053,51.121,317.844,32.715
						c5.016-0.889,9.943-1.797,14.657-2.74c2.63-0.526,5.215-1.243,7.779-2.052c9.397-2.964,18.372-7.736,26.909-14.056
						c88.563-65.576,131.016-293.044,131.016-293.044S1910.453,3023.003,1853.956,2965.637z M1526.368,2869.523
						c1.242-6.519,2.361-12.375,3.27-17.098C1528.729,2857.148,1527.61,2863.005,1526.368,2869.523z"/>
				</g>
			</g>
			<g>
				<path style="fill:#FEFEFE;" d="M1513.669,3195.064c0,0,238.671,17.729,301.91,115.296c0,0-21.598,35.806-56.211,50.059
					c-34.613,14.252-152.027,35.971-257.903,12.895c-105.876-23.075-113.866-69.227-105.12-101.125
					C1405.09,3240.291,1485.83,3193.274,1513.669,3195.064z"/>
			</g>
			<g style="opacity:0.5;">
				<path style="fill:#FFFFFD;" d="M1411.158,3279.783c0,0,42.634-41.886,90.504-50.114c47.87-8.228,119.338-12.117,119.338-12.117
					s-47.533-22.038-96.151-22.538C1476.232,3194.515,1403.679,3225.93,1411.158,3279.783z"/>
			</g>
			<g style="opacity:0.2;">
				<path style="fill:#58060A;" d="M1754.031,3363c9.241-2.17,18.221-7.069,26.906-14.056c-8.536,6.321-17.512,11.093-26.909,14.056
					C1754.028,3363,1754.029,3363,1754.031,3363z"/>
			</g>
			<g style="opacity:0.2;">
				<path style="fill:#58060A;" d="M1413.747,3335.077c53.211,67.473,228.785,50.144,317.844,32.715
					C1627.8,3386.198,1463.618,3391.985,1413.747,3335.077z"/>
			</g>
			<g style="opacity:0.2;">
				<path style="fill:#58060A;" d="M1398.09,3285.767c-0.003,0.115,0.006,0.223,0.004,0.337c0.01-0.109,0.027-0.216,0.037-0.325
					C1398.129,3285.779,1398.09,3285.767,1398.09,3285.767z"/>
			</g>
			<g style="opacity:0.2;">
				<path style="fill:#58060A;" d="M1552.178,2776.74c-10.879,28.298-19.5,60.651-20.222,63.868
					c-1.276,5.686-22.635,118.942-22.635,118.942c36.831-89.858,165.123-37.296,235.431,49.468
					c70.31,86.764,44.878,278.244-79.284,299.187c-123.776,20.878-266.446-22.157-267.337-22.427
					c-0.01,0.11-0.027,0.216-0.037,0.325c-0.318,19.875,5.412,35.986,15.652,48.973c49.871,56.908,214.053,51.121,317.844,32.715
					c8.273-1.619,15.825-3.239,22.437-4.792c9.397-2.964,18.373-7.736,26.909-14.056c77.365-62.229,131.016-293.044,131.016-293.044
					s-1.499-32.896-57.996-90.263C1764.717,2875.025,1581.7,2790.104,1552.178,2776.74z"/>
			</g>
			<g>
				<path style="fill:#58060A;" d="M1586.001,3396.38c-88.55,0.005-177.959-16.499-198.704-75.454
					c-8.066-22.925-6.907-45.02,3.447-65.669c19.023-37.939,64.758-59.966,86.379-68.589
					c-7.375-186.543,53.04-406.563,55.667-416.03c2.332-8.394,11.028-13.301,19.426-10.981c8.396,2.334,13.313,11.031,10.984,19.429
					c-0.645,2.315-64.211,233.902-54.011,417.549c0.403,7.212-4.15,13.779-11.047,15.938c-0.583,0.181-60.491,19.434-79.219,56.895
					c-6.426,12.861-7.034,26.264-1.855,40.981c22.38,63.604,203.755,63.589,326.086,39.131
					c83.384-16.68,138.923-219.741,153.289-296.573c0.769-4.126,3.152-7.773,6.616-10.137c3.462-2.363,7.732-3.267,11.848-2.466
					l70.356,13.413c8.562,1.631,14.177,9.892,12.546,18.452c-1.631,8.56-9.883,14.175-18.455,12.544l-55.068-10.498
					c-5.479,25.357-18.071,78.194-38.306,133.194c-38.389,104.351-84.36,162.559-136.638,173.017
					C1712.363,3387.918,1649.4,3396.38,1586.001,3396.38z"/>
			</g>
			<g>
				<path style="fill:#58060A;" d="M1490.561,3181.991c42.091-8.43,121.771,1.815,144.263,42.875
					c0.524,1.007-0.357,2.282-1.484,2.135c-13.819-1.466-24.375-5.258-35.558-8.355c-32.895-9.332-67.717-9.266-101.475-5.622
					C1475.713,3215.924,1470.317,3186.559,1490.561,3181.991L1490.561,3181.991z"/>
			</g>
			<g>
				<path style="fill:#58060A;" d="M1459.55,3371.456c-7.248-28.463-3.872-97.138,33.026-103.138
					c1.091-0.132,1.999,0.933,1.718,1.989c-1.896,10.541-3.246,17.233-5.251,24.546c-4.995,22.893-1.153,47.863,1.509,70.981
					C1492.569,3385.432,1464.479,3390.435,1459.55,3371.456L1459.55,3371.456z"/>
			</g>
			<g>
				<path style="fill:#58060A;" d="M1564.56,3382.751c-4.711-26.298-0.288-89.677,31.092-97.835
					c1.052-0.261,2.084,0.626,2.003,1.702c0.299,18.413-4.149,29.39-3.834,46.479c-0.176,12.729,1.162,32.508,2.002,45.334
					C1597.322,3398.447,1568.462,3402.348,1564.56,3382.751L1564.56,3382.751z"/>
			</g>
			<g style="opacity:0.5;">
				
					<ellipse transform="matrix(0.0987 -0.9951 0.9951 0.0987 -1593.5291 4364.9463)" style="fill:#FFFFFD;" cx="1612.794" cy="3062.141" rx="35.903" ry="77.383"/>
			</g>
		</g>
		<g>
			<path style="fill:#F7A128;" d="M2563.128,2777.823c0,0,7.002,25.211,16.04,65.747c-0.722-3.218-9.343-35.571-20.222-63.868
				C2561.591,2778.504,2563.128,2777.823,2563.128,2777.823z"/>
		</g>
		<g style="opacity:0.2;">
			<path style="fill:#58060A;" d="M2713.034,3288.729c0.003,0.115-0.005,0.223-0.004,0.338c-0.01-0.109-0.027-0.216-0.037-0.325
				C2712.996,3288.74,2713.034,3288.729,2713.034,3288.729z"/>
		</g>
		<g>
			<g>
				<path style="fill:#F7A128;" d="M2713.03,3289.066c-0.01-0.109-0.027-0.216-0.036-0.325
					c-5.394-60.133-95.304-88.272-95.304-88.272c4.34-78.123-4.295-164.074-15.89-237.964c0.001,0.003,0.002,0.005,0.004,0.008
					c0,0-0.011-0.064-0.014-0.076c-7.199-45.861-15.533-87.083-22.622-118.866c-0.722-3.218-9.342-35.571-20.221-63.868
					c-29.521,13.364-212.538,98.284-301.779,188.896c-56.497,57.367-57.995,90.263-57.995,90.263s42.451,227.467,131.015,293.044
					c8.536,6.321,17.512,11.093,26.909,14.056c2.565,0.809,5.15,1.526,7.78,2.052c4.714,0.943,9.641,1.851,14.657,2.741
					c103.791,18.406,267.973,24.193,317.843-32.715c5.087-5.805,9.046-12.229,11.564-19.392
					C2712.675,3308.036,2713.802,3298.194,2713.03,3289.066z"/>
			</g>
			<g>
				<path style="fill:#FEFEFE;" d="M2595.669,3198.256c0,0-238.671,17.729-301.91,115.296c0,0,21.598,35.806,56.211,50.059
					c34.613,14.253,152.027,35.971,257.903,12.895s113.866-69.227,105.12-101.125
					C2704.247,3243.483,2623.507,3196.466,2595.669,3198.256z"/>
			</g>
			<g style="opacity:0.5;">
				<path style="fill:#FFFFFD;" d="M2699.966,3282.745c0,0-42.634-41.886-90.504-50.114c-47.87-8.228-119.338-12.117-119.338-12.117
					s47.533-22.038,96.151-22.537C2634.893,3197.477,2707.446,3228.892,2699.966,3282.745z"/>
			</g>
			<g style="opacity:0.2;">
				<path style="fill:#58060A;" d="M2357.094,3365.961c-9.241-2.17-18.221-7.069-26.906-14.056
					c8.537,6.321,17.512,11.092,26.909,14.056C2357.097,3365.962,2357.096,3365.961,2357.094,3365.961z"/>
			</g>
			<g style="opacity:0.2;">
				<path style="fill:#58060A;" d="M2697.378,3338.039c-53.211,67.473-228.785,50.144-317.844,32.715
					C2483.325,3389.16,2647.507,3394.947,2697.378,3338.039z"/>
			</g>
			<g style="opacity:0.2;">
				<path style="fill:#58060A;" d="M2558.946,2779.702c10.879,28.298,19.5,60.651,20.222,63.868
					c1.277,5.686,22.635,118.942,22.635,118.942c-36.831-89.858-165.123-37.296-235.431,49.468
					c-70.31,86.764-44.878,278.244,79.284,299.188c123.775,20.878,266.446-22.157,267.337-22.427
					c0.01,0.109,0.027,0.216,0.037,0.325c0.318,19.875-5.412,35.986-15.652,48.973c-49.871,56.908-214.052,51.121-317.844,32.715
					c-8.273-1.619-15.825-3.24-22.437-4.792c-9.397-2.964-18.373-7.736-26.909-14.056
					c-77.365-62.229-131.016-293.044-131.016-293.044s1.499-32.896,57.996-90.263
					C2346.408,2877.986,2529.425,2793.066,2558.946,2779.702z"/>
			</g>
			<g>
				<path style="fill:#58060A;" d="M2525.117,3399.344c-63.406,0.005-126.35-8.457-163.335-15.854
					c-52.268-10.454-98.13-68.105-136.313-171.352c-20.205-54.639-32.708-107.115-38.096-132.066l-57.925,9.112
					c-8.604,1.377-16.685-4.527-18.04-13.135c-1.355-8.608,4.527-16.685,13.137-18.037l72.813-11.455
					c8.416-1.357,16.392,4.297,17.964,12.69c14.187,75.923,69.265,276.616,152.649,293.296
					c122.329,24.468,303.706,24.473,326.087-39.136c5.178-14.717,4.57-28.12-1.855-40.977
					c-18.726-37.461-78.635-56.719-79.238-56.909c-6.877-2.168-11.428-8.731-11.028-15.928
					c10.19-183.438-57.405-408.691-58.091-410.942c-0.854-2.817-0.904-5.815-0.144-8.657l16.643-62.285
					c2.251-8.418,10.876-13.433,19.319-11.172c8.418,2.251,13.42,10.898,11.17,19.316l-15.493,57.983
					c9.594,32.705,65.41,231.455,58.657,405.786c21.619,8.628,67.361,30.654,86.385,68.599
					c10.354,20.649,11.514,42.739,3.447,65.664C2703.086,3382.835,2613.66,3399.344,2525.117,3399.344z"/>
			</g>
			<g>
				<path style="fill:#58060A;" d="M2614.816,3215.984c-22.444-2.483-45.317-3.191-67.795-0.805
					c-24.742,1.679-43.678,11.473-69.178,14.777c-1.139,0.191-2.091-1.104-1.542-2.129c17.667-32.756,70.148-43.627,104.577-45.532
					c13.449-0.495,26.312,0.048,39.686,2.657C2640.833,3189.368,2635.297,3219.033,2614.816,3215.984L2614.816,3215.984z"/>
			</g>
			<g>
				<path style="fill:#58060A;" d="M2620.66,3368.071c1.905-15.269,3.947-32,3.802-47.375c0.238-17.877-4.551-28.548-7.632-47.428
					c-0.281-1.052,0.629-2.126,1.718-1.988c30.036,4.794,36.139,50.204,36.209,74.709c-0.109,9.823-0.895,18.599-3.183,28.429
					C2646.382,3393.899,2617.76,3387.926,2620.66,3368.071L2620.66,3368.071z"/>
			</g>
			<g>
				<path style="fill:#58060A;" d="M2515.302,3381.393c1.217-21.461,3.72-46.403,0.274-67.567
					c-1.482-7.257-2.13-14.098-2.107-24.366c-0.012-1.033,1-1.832,2.002-1.582c31.356,8.135,35.812,71.487,31.094,97.834
					C2542.598,3405.391,2513.764,3401.314,2515.302,3381.393L2515.302,3381.393z"/>
			</g>
			<g style="opacity:0.5;">
				
					<ellipse transform="matrix(0.9951 -0.0987 0.0987 0.9951 -291.0772 261.5767)" style="fill:#FFFFFD;" cx="2499.192" cy="3073.791" rx="77.383" ry="35.903"/>
			</g>
		</g>
		<g>
			<path style="fill:#58060A;" d="M1910.333,3071.596c-70.365-7.661-173.157-58.741-202.493-126.061
				c-0.526-1.184,0.924-2.462,2.019-1.683c26.288,15.776,46.355,34.25,71.995,49.095c24.382,14.057,50.846,25.685,77.713,34.221
				c17.789,5.501,36.567,10.352,54.815,13.155C1934.504,3043.757,1930.716,3073.373,1910.333,3071.596L1910.333,3071.596z"/>
		</g>
		<g>
			<path style="fill:#58060A;" d="M2195.579,3046.939c22-7.204,52.727-17.093,74.025-25.189
				c25.808-8.878,46.254-22.014,73.137-30.142c1.115-0.408,2.293,0.815,1.804,1.911c-5.63,14.041-16.483,24.077-27.846,32.054
				c-14.154,10.133-29.469,18.552-44.894,26.324c-21.948,10.407-44.025,19.336-67.761,25.446
				C2184.189,3081.915,2176.227,3053.269,2195.579,3046.939L2195.579,3046.939z"/>
		</g>
		<g style="opacity:0.2;">
			<path style="fill:#58060A;" d="M2426.171,2138.982c0,0-111.84,62.571-325.011,64.645s-458.879-134.804-458.879-134.804
				l12.737-60.173l743.46,65.409L2426.171,2138.982z"/>
		</g>
		<g>
			<g>
				<path style="fill:#F7A128;" d="M1951.192,745.666c0,0,382.212-20.943,523.578,118.179c0,0,83.024-92,181.756-29.171
					c98.732,62.829,157.073,118.927,157.073,118.927s161.561,53.854,181.756,154.829c20.195,100.976-35.902,276,0,381.464
					c35.903,105.464-20.195,170.537-114.439,125.659c-94.244-44.878-159.317-150.342-159.317-150.342
					s159.317,314.147-22.439,495.903s-608.098,233.366-1012.001,76.293s-473.464-397.171-338.83-574.44
					c0,0,6.732-114.439,56.098-192.976c0,0-210.927,58.342-224.391-33.658c-13.464-92,38.146-184,123.415-347.805
					c85.268-163.805,276-175.025,276-175.025S1777.663,528.755,1951.192,745.666z"/>
			</g>
			<g>
				<path style="fill:#FFFEFC;" d="M1531.956,1964.139c0,0-82.234-246.468,176.893-339.562s297.769-210.17,326.919-446.355
					c29.15-236.185-57.168-433.432-57.168-433.432s233.33-21.643,401.439,67.441l30.98,6.25c0,0-211.041,311.868-237.51,614.068
					s322.197,268.331,150.918,688.409C2324.428,2120.958,1908.442,2185.383,1531.956,1964.139z"/>
			</g>
			<g>
				<path style="fill:#58060A;" d="M2486.462,853.249c14.762,14.806,26.196,32.2,36.33,50.394c3.429,6.065,5.97,12.964,4.659,22.272
					c-0.139,0.988-1.052,1.675-2.04,1.536c-16.647-3.236-23.321-14.321-34.754-23.94c-9.731-9.165-19.397-18.769-27.683-29.2
					C2451.142,858.669,2472.315,839.832,2486.462,853.249L2486.462,853.249z"/>
			</g>
			<g>
				<path style="fill:#AA501C;" d="M1599.587,1118.528c0,0,81.054-106.631,119.877-204.318
					c38.823-97.687,171.031-157.512,171.031-157.512l51.347-11.033l-10.062-22.493c0,0-46.359-86.608-183.802-82.676
					c-137.444,3.933-194.186,102.559-194.186,102.559l5.841-21.255c0,0-156.181,12.743-236.905,134.644
					c-80.723,121.901-80.197,144.749-130.344,267.197c-50.147,122.448-1.713,162.922,86.054,164.573s149.858-32.976,178.368-50.276
					C1485.316,1220.64,1599.587,1118.528,1599.587,1118.528z"/>
			</g>
			<g>
				<path style="fill:#AA501C;" d="M2673.017,842.822c0,0,98.998,74.894,125.569,100.912c26.57,26.018,29.768,12.181,103.962,52.92
					c74.195,40.739,106.772,86.551,94.555,213.806c-12.216,127.255-20.361,194.445-10.18,259.6
					c10.18,65.155,43.776,125.219-25.451,154.742c-69.227,29.523-198.539-104.701-198.539-104.701s-93.779-90.765-120.687-222.6
					c-26.907-131.835-3.732-242.75-30.59-309.457s-99.847-80.607-99.847-80.607s-39.268-31.105-25.897-54.923
					C2499.282,828.695,2603.441,780.596,2673.017,842.822z"/>
			</g>
			<g style="opacity:0.5;">
				<path style="fill:#FFFFFD;" d="M2851.746,1011.195c0,0,56.845,20.943,97.984,77.789
					c41.138,56.846,45.626,133.886,45.626,133.886s21.691-100.976-20.195-157.821c-41.886-56.846-103.276-85.99-106.991-87.866
					c-3.715-1.876-32.879-7.126-32.879-7.126L2851.746,1011.195z"/>
			</g>
			<g style="opacity:0.5;">
				<path style="fill:#FFFFFD;" d="M1204.719,1112.919c0,0,60.585-68.439,98.732-140.244c38.146-71.805,92-166.712,245.147-223.039
					l-24.039,35.705c0,0,152.717-111.105,243.488-102.13s135.77,75.865,135.77,75.865l38.026-13.409v-17.577
					c0,0-48.244-71.677-148.659-85.204s-186.627,49.563-186.627,49.563l-23.739,14.325l-20.195,6.732
					c0,0-130.262,16.406-214.912,111.423C1263.061,919.943,1204.719,1112.919,1204.719,1112.919z"/>
			</g>
			<g style="opacity:0.5;">
				<path style="fill:#FFFFFD;" d="M1841.498,796.811c0,0,86.507-14.494,190.474-10.754c103.968,3.74,274.505,26.179,367.627,71.057
					c93.122,44.878,100.976,50.488,100.976,50.488v-13.947c0,0,44.878-33.175,97.61-29.809c52.732,3.366,163.805,92,194.098,136.878
					c30.293,44.878,75.887,164.927,75.887,164.927s8.676-68.23-13.208-125.098c-21.884-56.868-27.305-78.506-71.982-113.878
					c-44.676-35.371-112.27-96.898-167.606-110.156c-55.336-13.258-104.702,15.739-114.799,25.362
					c-10.098,9.623-25.805,16.355-25.805,16.355l-14.585-6.732c0,0-32.712-56.11-243.551-91.445
					c-210.84-35.335-315.019-5.51-321.726,0C1888.2,765.568,1841.498,796.811,1841.498,796.811z"/>
			</g>
			<g>
				<g style="opacity:0.2;">
					<path style="fill:#58060A;" d="M2995.356,1489.895c-35.903-105.464,20.195-280.488,0-381.464
						c-4.271-21.355-14.906-40.578-28.957-57.654c15.494,166.483-32.604,229.14-22.653,314.955
						c14.212,122.554-1.497,159.43-95.739,114.552c-94.245-44.878-211.38-216.315-211.38-216.315s22.891,137.665,84.972,201.243
						c26.538,34.692,97.35,120.833,159.317,150.341C2975.16,1660.432,3031.258,1595.358,2995.356,1489.895z"/>
				</g>
				<g style="opacity:0.2;">
					<path style="fill:#58060A;" d="M2666.25,1825.846c-181.757,181.756-608.099,233.366-1012.001,76.293
						c-198.048-77.019-315.664-174-368.284-273.747c-4.367,143.337,113.688,297.208,401.193,409.017
						c403.903,157.073,830.245,105.463,1012.002-76.293c129.905-129.905,85.583-327.412,49.721-429.544
						C2761.5,1628.388,2750.695,1741.4,2666.25,1825.846z"/>
				</g>
				<g style="opacity:0.2;">
					<path style="fill:#58060A;" d="M1186.386,1144.551c-8.211,32.212-10.706,62.005-6.35,91.782
						c7.699,52.599,79.918,56.037,140.384,49.35c38.298-8.742,61.362-5.237,92.51-20.444
						c264.505-129.133,327.796-436.435,355.116-479.899C1768.046,785.34,1432.102,1297.667,1186.386,1144.551z"/>
				</g>
			</g>
			<g>
				<path style="fill:#58060A;" d="M2176.448,2146.375c-159.69,0.005-331.953-30.85-495.01-94.263
					c-282.727-109.949-374.102-246.463-400.969-341.621c-24.421-86.499-6.277-173.987,52.461-253.289
					c1.631-20.01,9.666-96.528,40.947-163.794c-48.572,9.929-134.006,21.367-179.395-8.223
					c-17.051-11.118-27.166-26.787-30.059-46.567c-13.459-91.963,33.459-181.875,111.191-330.835l13.838-26.54
					c81.113-155.825,249.941-179.778,283.474-183.035c19.38-16.599,101.313-80.683,203.169-73.242
					c67.434,4.924,128.73,40.095,182.305,104.573c56.309-2.244,374.587-9.216,515.979,112.522
					c37.534-33.56,112.512-70.403,190.618-20.701c88.581,56.37,144.497,106.829,156.965,118.44
					c24.693,8.784,168.57,64.055,188.867,165.535c9.502,47.512,3.23,107.888-3.41,171.809
					c-7.795,75.046-15.854,152.649,2.874,207.666c20.478,60.151,13.828,112.859-17.786,140.994
					c-28.076,24.988-71.221,26.448-118.376,3.997c-39.561-18.84-73.931-47.456-100.974-75.083
					c7.925,25.823,15.518,55.569,20.94,87.656c23.274,137.739-5.696,251.816-83.779,329.897
					C2595.774,2086.815,2398.26,2146.365,2176.448,2146.375z M1404.422,1254.212c4.91,0,9.639,2.295,12.664,6.362
					c3.887,5.225,4.167,12.3,0.701,17.815c-46.563,74.08-53.638,184.404-53.704,185.51c-0.186,3.12-1.296,6.123-3.186,8.611
					c-54.763,72.104-72.07,151.431-50.056,229.407c35.222,124.751,170.901,238.674,382.039,320.781
					c188.503,73.306,395.251,104.541,582.19,87.905c178.567-15.879,325.217-72.93,412.935-160.647
					c171.677-171.68,21.064-474.57,19.524-477.61c-3.826-7.539-1.023-16.75,6.348-20.891s16.699-1.731,21.15,5.461
					c0.627,1.016,63.884,102.107,152.676,144.39c35.132,16.733,65.689,17.07,83.826,0.923c21.494-19.128,24.9-60.225,8.892-107.249
					c-20.959-61.567-12.534-142.668-4.387-221.096c6.384-61.475,12.417-119.541,3.853-162.358
					c-18.15-90.752-169.754-142.446-171.282-142.957c-2.217-0.742-4.251-1.973-5.935-3.591
					c-0.576-0.552-58.547-55.862-154.612-116.992c-86.479-55.037-158.54,23.081-161.57,26.431c-2.883,3.196-6.946,5.073-11.245,5.2
					c-4.368,0.134-8.474-1.511-11.538-4.524c-134.836-132.698-507.903-113.872-511.646-113.669c-5.098,0.278-10-1.919-13.186-5.898
					c-48.997-61.247-104.453-94.578-164.827-99.065c-100.564-7.471-183.025,67.839-183.848,68.601
					c-2.686,2.488-6.165,3.979-9.817,4.194c-1.802,0.11-182.959,12.925-262.932,166.558l-13.853,26.57
					c-74.783,143.31-119.922,229.814-107.944,311.665c1.57,10.723,6.672,18.569,16.059,24.695
					c42.476,27.715,150.483,6.536,188.516-3.962C1401.614,1254.398,1403.025,1254.212,1404.422,1254.212z"/>
			</g>
			<g>
				<path style="fill:#58060A;" d="M2710.795,1476.713c-59.194-62.703-84.162-150.32-91.179-234.431
					c-2.336-35.138-3.609-70.496-4.004-105.603c-0.857-45.871,0.133-92.438-9.057-137.124
					c-4.572-21.975-12.838-43.073-25.087-63.064c-0.821-1.176,0.97-2.747,2.019-1.681c36.497,32.141,48.696,84.223,52.51,130.745
					c4.141,47.164,5.524,93.553,9.419,139.677c2.258,28.007,5.31,57.25,10.906,84.842c9.227,43.746,24.297,86.748,47.379,125.039
					c8.579,13.656,18.046,27.6,29.205,39.104C2747.055,1469.024,2726.034,1490.679,2710.795,1476.713L2710.795,1476.713z"/>
			</g>
			<g>
				<path style="fill:#58060A;" d="M2825.26,942.97c33.216,40.017,46.957,92.331,52.307,143.054
					c2.796,38.399,3.557,78.226-11.051,114.545c-0.448,1.177-2.338,1.094-2.594-0.189c-2.604-11.069-3.577-21.819-4.457-32.483
					c-2.549-26.299-3.359-52.409-8.269-78.336c-2.141-11.965-5.521-26.188-8.594-37.83c-9.238-31.219-21.563-62.596-41.436-88.469
					C2788.931,947.193,2811.453,928.179,2825.26,942.97L2825.26,942.97z"/>
			</g>
			<g>
				<path style="fill:#58060A;" d="M1953.811,761.227c-18.772,4.374-38.942,9.578-57.464,15.921
					c-20.658,6.497-34.829,17.393-56.744,23.621c-1.067,0.373-2.22-0.642-1.961-1.749c7.153-33.973,63.743-57.371,94.136-65.505
					c5.489-1.422,10.67-2.522,16.794-3.409C1968.808,727.662,1973.676,756.929,1953.811,761.227L1953.811,761.227z"/>
			</g>
			<g>
				<path style="fill:#58060A;" d="M1397.014,1256.062c67.14-38.604,130.958-86.323,185.574-141.524
					c22.44-22.584,43.611-48.234,61.201-74.794c54.283-83.11,87.521-176.193,126.623-267.311c0.475-1.399,2.859-0.824,2.535,0.694
					c-8.497,52.997-24.482,104.287-44.233,154.114c-25.064,62.518-54.882,124.758-97.508,177.412
					c-25.864,31.24-54.984,60.556-85.897,86.659c-41.743,35.123-85.384,66.161-133.469,92.61c-7.666,4.14-17.237,1.282-21.378-6.384
					C1386.269,1269.804,1389.272,1260.131,1397.014,1256.062L1397.014,1256.062z"/>
			</g>
			<g>
				<path style="fill:#58060A;" d="M1590.86,724.405c-9.383,11.16-24.59,27.19-34.641,38.238
					c-13.163,13.299-20.318,27.119-37.304,37.75c-0.892,0.581-2.156,0.075-2.401-0.96c-4.598-20.844,8.298-36.886,17.434-53.531
					c9.838-15.732,20.758-30.189,34.095-43.301C1582.765,688.962,1603.796,709.16,1590.86,724.405L1590.86,724.405z"/>
			</g>
			<g>
				<path style="fill:#58060A;" d="M1707.609,1113.239c10.432-12.592,22.813-21.976,36.353-30.154
					c15.59-8.674,29.187-15.197,48.717-16.395c20.242,0.293,34.094,7.75,49.803,16.776c13.543,8.317,25.697,17.943,36.418,29.859
					c4.235,4.407-0.418,12.096-6.229,10.476c-26.333-5.602-52.814-19.115-78.658-20.539c-26.031,4.297-52.821,16.852-80.182,20.556
					C1708.02,1125.102,1703.697,1117.633,1707.609,1113.239L1707.609,1113.239z"/>
			</g>
			<g>
				<path style="fill:#58060A;" d="M2408.755,1242.277c12.238-10.845,25.911-18.221,40.544-24.227
					c16.735-6.182,31.171-10.544,50.654-8.736c19.959,3.392,32.504,12.884,46.645,24.21c12.109,10.294,22.644,21.668,31.412,35.087
					c1.928,2.95,1.1,6.905-1.851,8.833c-1.915,1.25-4.227,1.337-6.172,0.455c-25.072-9.565-49.086-26.9-74.32-32.24
					c-26.382,0.258-54.779,8.558-82.384,8.026C2407.344,1254.062,2404.216,1246.02,2408.755,1242.277L2408.755,1242.277z"/>
			</g>
			<g>
				<path style="fill:#58060A;" d="M2002.84,1656.481c0,0-65.098-39.586-50.917-74.531s146.643-7.189,139.938,33.135
					C2085.156,1655.409,2002.84,1656.481,2002.84,1656.481z"/>
			</g>
			<g>
				<path style="fill:#58060A;" d="M1861.514,1673.21c25.977,40.531,77.318,64.646,119.293,33.553
					c11.827-5.962,27.11-3.516,36.368,5.955c25.67,29.167,53.114,40.535,89.548,23.442c10.614-5.286,19.373-15.334,22.843-26.644
					c0.606-3.175,3.738-5.419,6.914-4.339c8.446,3.11,0.353,23.427-2.514,28.781c-9.734,18.486-29.581,29.391-49.185,34.016
					c-20.393,5.698-43.39,1.084-61.101-9.917c-10.672-6.316-19.902-14.314-28.256-23.02c-0.189-0.127-0.501-0.192-0.685-0.041
					c-23.054,17.266-56.213,20.752-82.218,10.236c-15.322-5.425-29.014-15.314-39.575-27.395
					c-10.242-12.175-17.745-25.633-21.312-41.012c-0.659-2.842,1.11-5.679,3.952-6.339
					C1858.04,1669.912,1860.351,1671.15,1861.514,1673.21L1861.514,1673.21z"/>
			</g>
			<g>
				<path style="fill:#58060A;" d="M1995.713,1735.055c-0.383,0-0.769-0.012-1.157-0.042c-8.691-0.63-15.227-8.186-14.597-16.877
					c0.142-1.975,3.596-48.665,11.919-74.829c2.642-8.303,11.521-12.888,19.819-10.254c8.306,2.642,12.896,11.514,10.254,19.819
					c-7.188,22.6-10.483,67.097-10.517,67.544C2010.83,1728.719,2003.906,1735.055,1995.713,1735.055z"/>
			</g>
			<g>
				<path style="fill:#58060A;" d="M1566.072,1424.48c23.145-47.474,69.743-83.853,122.395-91.966
					c72.845-11.231,151.584,29.134,169.905,103.43c4.433,17.108,6.351,34.061,4.338,51.771c-0.411,3.378-3.483,5.784-6.861,5.372
					c-2.95-0.354-5.067-2.708-5.411-5.498c-5.786-30.272-18.787-59.607-38.713-80.148c-40.52-41.638-107.286-50.361-160.103-28.009
					c-27.164,11.186-52.842,29.834-75.246,51.715C1571.76,1436.447,1563.066,1430.902,1566.072,1424.48L1566.072,1424.48z"/>
			</g>
			<g>
				<path style="fill:#58060A;" d="M2235.877,1508.049c23.145-47.474,69.743-83.854,122.395-91.966
					c72.845-11.232,151.585,29.134,169.906,103.43c4.434,17.107,6.35,34.06,4.338,51.77c-0.411,3.378-3.483,5.784-6.861,5.373
					c-2.95-0.354-5.067-2.709-5.411-5.499c-5.786-30.272-18.787-59.606-38.712-80.147c-40.52-41.638-107.286-50.362-160.104-28.009
					c-27.164,11.186-52.842,29.833-75.246,51.715C2241.566,1520.016,2232.871,1514.471,2235.877,1508.049L2235.877,1508.049z"/>
			</g>
		</g>
		<g>
			<g>
				<path style="fill:#F7A128;" d="M2432.135,2298.823c0,0,296.196,173.903,381.464-75.171
					c65.993-192.768-120.154-442.09-238.467-447.679c-118.314-5.59-107.094,203.307-48.753,294.078
					c58.342,90.771-100.209,68.931-100.209,68.931"/>
			</g>
			<g>
				<g style="opacity:0.2;">
					<path style="fill:#58060A;" d="M2679.606,1828.011c66.518,90.947,110.332,218.596,72.866,328.035
						c-61.142,178.602-320.337,142.776-320.337,142.776s296.197,173.903,381.465-75.171
						C2861.757,2082.983,2775.644,1912.223,2679.606,1828.011z"/>
				</g>
			</g>
			<g>
				<path style="fill:#58060A;" d="M2432.135,2298.823c33.883,4.362,63.118,13.803,92.763,22.829
					c56.923,15.475,119.621,29.319,176.628,8.397c34.443-12.413,61.579-39.679,79.288-71.113
					c6.435-11.582,13.542-28.503,18.071-41.119c1.786-6.16,4.845-15.349,6.028-21.577c20.528-90.003-9.682-184.895-57.141-261.917
					c-32.433-51.08-73.661-99.716-127.423-128.517c-36.435-19.926-82.763-22.271-103.734,19.256
					c-31.327,63.224-16.363,155.153,14.134,216.643c9.856,19.921,25.629,37.151,26.06,61.228
					c-1.134,62.078-92.218,60.299-130.637,36.049c24.129-7.409,45.886-10.038,68.836-15.689
					c10.389-2.963,21.531-5.438,26.156-14.611c2.371-16.907-16.074-35.52-22.069-51.565
					c-30.986-70.371-46.715-176.745-10.143-247.248c15.053-29.681,46.98-50.707,81.466-49.633
					c85.259,2.363,161.932,90.443,204.161,157.432c51.822,84.106,83.645,186.974,61.063,285.765
					c-8.818,37.059-25.048,73.211-49.133,102.898c-7.898,9.734-18.186,19.483-27.989,27.425
					c-9.794,8.078-22.123,14.927-33.382,20.877c-66.085,30.956-144.514,23.737-210.647-1.78
					C2483.329,2341.214,2453.546,2325.417,2432.135,2298.823L2432.135,2298.823z"/>
			</g>
		</g>
		<g>
			<g>
				<path style="fill:#FFFFFF;" d="M2036.159,1396.092l15.567,310.206c0.662,13.191,11.702,23.46,24.907,23.166l572.533-12.756
					c13.537-0.302,24.239-11.571,23.84-25.106l-9.04-307.034c-0.393-13.344-11.439-23.894-24.787-23.673l-579.06,9.584
					C2046.327,1370.707,2035.468,1382.316,2036.159,1396.092z"/>
			</g>
			<g>
				<path style="fill:#A59D97;" d="M2636.627,1514.488h-146.711l-9.043-6.468c0,0-37.703-108.412-134.098-101.976
					c-96.396,6.436-127.634,83.682-127.634,83.682l-6.393,18.018l-9.491,6.744h-157.634l-3.969-8.912l-5.494-109.484
					c0,0,1.057-25.234,26.854-25.661s573.614-9.54,573.614-9.54s20.662-3.123,26.171,16.94s4.994,124.053,4.994,124.053
					l-4.534,12.604H2636.627z"/>
			</g>
			<g>
				<g style="opacity:0.4;">
					<path style="fill:#FFFFFF;" d="M2063.013,1398.614c25.798-0.427,573.613-9.54,573.613-9.54s20.662-3.123,26.172,16.94
						c3.663,13.341,4.662,63.765,4.921,96.074l0.074-0.204c0,0,0.515-103.99-4.994-124.053c-5.51-20.063-26.172-16.94-26.172-16.94
						s-547.815,9.113-573.613,9.539c-25.798,0.427-26.854,25.661-26.854,25.661l1.108,22.074
						C2039.372,1410.67,2045.46,1398.905,2063.013,1398.614z"/>
				</g>
			</g>
			<g>
				<path style="fill:#A59D97;" d="M2695.794,1741.483v111.079c0,13.317-10.589,24.154-23.749,24.305l-605.387,6.946
					c-12.786,0.147-23.444-9.868-24.246-22.781l-6.595-106.219c-0.858-13.813,9.84-25.563,23.516-25.826l611.983-11.806
					C2684.759,1716.921,2695.794,1727.877,2695.794,1741.483z"/>
			</g>
			<g>
				<g style="opacity:0.4;">
					<path style="fill:#FFFFFF;" d="M2671.316,1717.181l-611.982,11.806c-13.677,0.264-24.374,12.013-23.517,25.826l1.315,21.16
						c3.208-9.295,11.835-16.104,22.202-16.303l611.982-11.806c13.443-0.259,24.478,10.697,24.478,24.302v-30.683
						C2695.794,1727.877,2684.759,1716.921,2671.316,1717.181z"/>
				</g>
			</g>
			<g>
				<polyline style="fill:#FFFFFF;" points="2201.041,1368.146 2201.041,1306.643 2392.493,1306.643 2392.493,1364.978 				"/>
			</g>
			<g>
				<path style="fill:#58060A;" d="M2076.052,1742.62c-20.073,0-36.448-15.503-37.459-35.662l-15.566-310.207l0,0
					c-0.515-10.256,3.064-20.034,10.081-27.532c7.014-7.498,16.531-11.719,26.794-11.887l579.06-9.585
					c20.469-0.349,37.549,16.008,38.15,36.433l9.038,307.036c0.298,10.071-3.362,19.646-10.3,26.956
					c-6.941,7.31-16.316,11.458-26.394,11.682l-572.529,12.756C2076.636,1742.616,2076.343,1742.62,2076.052,1742.62z
					 M2049.292,1395.433l15.566,310.208c0.308,6.123,5.406,10.75,11.482,10.676l572.532-12.756c3.02-0.066,5.828-1.309,7.905-3.499
					c2.077-2.188,3.174-5.054,3.083-8.071l-9.038-307.036c-0.178-6.055-5.203-10.913-11.24-10.913c-0.063,0-0.125,0-0.186,0
					l-579.06,9.585c-3.074,0.051-5.925,1.316-8.025,3.562C2050.21,1389.432,2049.138,1392.362,2049.292,1395.433L2049.292,1395.433z
					"/>
			</g>
			<g>
				<path style="fill:#58060A;" d="M2066.377,1896.964c-19.609,0-35.859-15.344-37.09-35.117l-6.594-106.218
					c-0.635-10.198,2.961-20.342,9.863-27.83c6.926-7.515,16.345-11.763,26.523-11.958l611.983-11.807
					c9.99-0.107,19.465,3.574,26.638,10.608c7.251,7.112,11.243,16.646,11.243,26.841v111.079c0,20.422-16.485,37.224-36.748,37.454
					l-605.386,6.946C2066.665,1896.961,2066.521,1896.964,2066.377,1896.964z M2671.778,1730.325c-0.069,0-0.139,0.003-0.208,0.003
					l-611.983,11.807c-2.942,0.056-5.674,1.296-7.695,3.489c-2.097,2.275-3.144,5.249-2.949,8.374l6.594,106.218
					c0.369,5.925,5.308,10.435,10.969,10.447l605.388-6.946c5.928-0.066,10.75-5.071,10.75-11.155v-111.079
					c0-3.076-1.194-5.94-3.362-8.066C2677.246,1731.419,2674.587,1730.325,2671.778,1730.325z"/>
			</g>
			<g>
				<path style="fill:#58060A;" d="M2201.04,1381.295c-7.263,0-13.149-5.886-13.149-13.149v-61.504
					c0-7.263,5.886-13.149,13.149-13.149h191.453c7.263,0,13.149,5.886,13.149,13.149v58.337c0,7.263-5.886,13.149-13.149,13.149
					c-7.263,0-13.149-5.886-13.149-13.149v-45.188H2214.19v48.354C2214.19,1375.409,2208.303,1381.295,2201.04,1381.295z"/>
			</g>
			<g>
				
					<ellipse transform="matrix(0.7071 -0.7071 0.7071 0.7071 -405.2535 2111.9934)" style="fill:#FFFFFF;" cx="2346.775" cy="1545.181" rx="139.136" ry="139.136"/>
			</g>
			<g>
				<path style="fill:#58060A;" d="M2346.775,1697.467c-83.969,0-152.285-68.315-152.285-152.285
					c0-83.972,68.315-152.288,152.285-152.288c83.97,0,152.285,68.315,152.285,152.288
					C2499.06,1629.151,2430.745,1697.467,2346.775,1697.467z M2346.775,1419.193c-69.468,0-125.986,56.519-125.986,125.989
					c0,69.468,56.519,125.986,125.986,125.986c69.468,0,125.987-56.519,125.987-125.986
					C2472.761,1475.711,2416.243,1419.193,2346.775,1419.193z"/>
			</g>
			<g>
				
					<ellipse transform="matrix(0.7071 -0.7071 0.7071 0.7071 -405.2535 2111.9934)" style="fill:#58060A;" cx="2346.775" cy="1545.181" rx="79.396" ry="79.396"/>
			</g>
			<g>
				<path style="fill:#58060A;" d="M2346.775,1637.725c-51.03,0-92.546-41.514-92.546-92.544s41.516-92.546,92.546-92.546
					c51.031,0,92.544,41.516,92.544,92.546S2397.805,1637.725,2346.775,1637.725z M2346.775,1478.934
					c-36.528,0-66.247,29.719-66.247,66.248s29.719,66.245,66.247,66.245c36.529,0,66.245-29.717,66.245-66.245
					S2383.303,1478.934,2346.775,1478.934z"/>
			</g>
			<g>
				<path style="fill:#58060A;" d="M2667.791,1527.638h-185.317c-7.263,0-13.149-5.886-13.149-13.149s5.886-13.149,13.149-13.149
					h185.317c7.263,0,13.149,5.886,13.149,13.149S2675.054,1527.638,2667.791,1527.638z"/>
			</g>
			<g>
				<path style="fill:#58060A;" d="M2207.639,1527.638H2042.1c-7.263,0-13.15-5.886-13.15-13.149s5.886-13.149,13.15-13.149h165.54
					c7.263,0,13.149,5.886,13.149,13.149S2214.903,1527.638,2207.639,1527.638z"/>
			</g>
			<g>
				<rect x="2526.379" y="1418.316" style="fill:#FFFFFF;" width="93.496" height="46.896"/>
			</g>
			<g>
				<path style="fill:#58060A;" d="M2619.875,1475.731h-93.496c-5.81,0-10.52-4.71-10.52-10.52v-46.895
					c0-5.811,4.709-10.52,10.52-10.52h93.496c5.811,0,10.52,4.709,10.52,10.52v46.895
					C2630.396,1471.021,2625.686,1475.731,2619.875,1475.731z M2536.9,1454.691h72.456v-25.854H2536.9V1454.691z"/>
			</g>
			<g>
				<path style="fill:#58060A;" d="M2094.783,1827.877c-7.166,0-13.032-5.752-13.142-12.944c-0.115-7.261,5.681-13.24,12.942-13.352
					l541.838-8.443c7.437-0.181,13.242,5.679,13.352,12.942c0.115,7.261-5.681,13.24-12.942,13.352l-541.838,8.442
					C2094.922,1827.877,2094.854,1827.877,2094.783,1827.877z"/>
			</g>
			<g>
				
					<ellipse transform="matrix(0.7071 -0.7071 0.7071 0.7071 -432.9883 2107.8262)" style="fill:#FFFFFF;" cx="2327.877" cy="1576.576" rx="15.624" ry="15.624"/>
			</g>
			<g>
				<circle style="fill:#5FC9FF;" cx="2371.574" cy="1518.434" r="24.8"/>
			</g>
			<g style="opacity:0.2;">
				<path style="fill:#58060A;" d="M2092.107,1729.47v-81.38h101.614c0,0,36.034,71.244,158.261,71.244
					c122.227,0,150.276-71.244,150.276-71.244h134.369v71.187L2092.107,1729.47z"/>
			</g>
			<g style="opacity:0.2;">
				<path style="fill:#58060A;" d="M2040.304,1478.689h152.855c0,0,30.108-72.644,153.615-72.644c0,0-96.042,6.098-127.634,83.682
					l-7.672,22.964l-10.428,5.744l-150.93-3.946l-8.457-8.912L2040.304,1478.689z"/>
			</g>
			<g style="opacity:0.2;">
				<path style="fill:#58060A;" d="M2383.704,1409.462c0,0,80.968-5.957,120.797,74.263l162.449,2.185v18.315l-9.302,6.427h-169.415
					l-5.761-5.61C2482.472,1505.041,2455.883,1441.223,2383.704,1409.462z"/>
			</g>
		</g>
		<g>
			<g>
				<path style="fill:#F7A128;" d="M1662.476,2325.376c0,0-134.634-46.374-169.041-204.943
					c-34.407-158.569,376.976-326.114,466.732-303.675s158.569,66.646,88.26,191.892
					c-70.309,125.246-308.361,183.588-308.361,183.588L1662.476,2325.376z"/>
			</g>
			<g>
				<path style="fill:#FEFEFE;" d="M1888.44,1821.194c0,0-50.946,210.455,76.85,284.956c0,0,158.189-145.545,97.18-234.549
					C2001.461,1782.598,1888.44,1821.194,1888.44,1821.194z"/>
			</g>
			<g style="opacity:0.2;">
				<path style="fill:#58060A;" d="M2062.434,1876.595c0,0,11.425,92.213-220.446,193.456s-341.074,60.734-341.074,60.734
					s-12.659,41.378,51.264,112.749c63.923,71.37,90.102,63.891,90.102,63.891s123.415-16.455,226.635-151.09
					c0,0,281.236-128.651,186.992-279.74"/>
			</g>
			<g>
				<path style="fill:#58060A;" d="M1662.476,2325.376c-34.088,0.468-65.035-16.382-90.388-37.659
					c-51.147-40.865-81.334-101.391-94.399-164.717c-18.273-102.553,103.769-183.993,180.389-228.09
					c72.472-40.49,224.205-108.054,306.06-93.425c133.982,31.491,162.465,111.704,90.579,227.091
					c-50.527,72.051-137.487,121.67-218.984,150.088c-30.856,10.675-62.304,18.983-95.667,13.574
					c26.814-21.136,55.146-32.685,83.723-44.618c96.011-42.472,200.53-86.777,232.605-196.078
					c23.986-75.784-37.02-103.735-99.921-119.441c-37.263-5.576-76.881,7.146-113.049,17.172
					c-97.177,28.182-348.527,142.404-335.346,262.433c11.924,57.957,43.652,110.31,85.881,151.447
					C1616.864,2284.823,1639.168,2302.892,1662.476,2325.376L1662.476,2325.376z"/>
			</g>
			<g style="opacity:0.5;">
				<path style="fill:#FFFFFD;" d="M1676.51,1989.043c-21.197,6.952-34.099-22.853-14.47-33.453
					c69.273-37.411,156.683-78.833,183.203-65.844C1875.95,1904.786,1768.349,1958.923,1676.51,1989.043z"/>
			</g>
		</g>
		<g>
			<g>
				<polygon style="fill:#FFFFFF;" points="2152.782,1813.823 2164.958,2212.033 2636.627,2212.033 2600.42,1806.85 				"/>
			</g>
			<g>
				<polygon style="fill:#28DAF7;" points="2548.819,1807.407 2565.648,2096.871 2234.672,2106.15 2224.948,1814.726 				"/>
			</g>
			<g>
				<path style="fill:#43D64D;" d="M2557.503,1956.779c0,0-50.197,36.873-71.592,45.849
					c-21.395,8.976-116.605,19.073-155.874-34.781c-39.269-53.854-101.458-44.282-101.458-44.282l-3.631-108.838l319.383-4.22
					l4.913,4.22L2557.503,1956.779z"/>
			</g>
			<g>
				<path style="fill:#58060A;" d="M2234.666,2119.3c-7.063,0-12.898-5.606-13.135-12.71l-9.724-291.423
					c-0.117-3.511,1.174-6.921,3.586-9.475c2.415-2.551,5.747-4.031,9.258-4.111l323.87-7.319
					c7.202-0.054,13.015,5.315,13.425,12.383l16.829,289.468c0.208,3.55-1.033,7.031-3.438,9.653
					c-2.405,2.617-5.767,4.156-9.321,4.253l-330.974,9.278C2234.917,2119.3,2234.79,2119.3,2234.666,2119.3z M2238.535,1827.574
					l8.843,265.066l304.355-8.53l-15.305-263.269L2238.535,1827.574z"/>
			</g>
			<g>
				<circle style="fill:#FFD141;" cx="2291.33" cy="2032.359" r="33.098"/>
			</g>
			<g style="opacity:0.2;">
				<path style="fill:#58060A;" d="M2152.782,1813.823c0,0,2.938,177.736,159.471,270.595
					c156.533,92.859,323.623,119.208,323.623,119.208l-471.174,0.023L2152.782,1813.823z"/>
			</g>
			<g>
				<path style="fill:#58060A;" d="M2636.626,2225.184h-471.668c-7.107,0-12.927-5.645-13.144-12.749l-12.178-398.208
					c-0.107-3.521,1.201-6.936,3.635-9.485c2.432-2.546,5.784-4.011,9.304-4.065l447.639-6.975
					c6.76-0.313,12.688,5.117,13.303,11.978l36.206,405.183c0.327,3.677-0.904,7.324-3.396,10.049
					C2643.838,2223.631,2640.317,2225.184,2636.626,2225.184z M2177.712,2198.885h444.536l-33.838-378.699l-422.078,6.577
					L2177.712,2198.885z"/>
			</g>
		</g>
		<g style="opacity:0.2;">
			<rect x="2152.782" y="1813.823" style="fill:#58060A;" width="454.516" height="69.991"/>
		</g>
	</g>
</g>
</svg>
